<svg xmlns="http://www.w3.org/2000/svg" width="644.1296" height="91" viewBox="0 0 644.1296 91"><defs><style>.a{fill:#37474f;}</style></defs><title>Asset 3</title><path class="a" d="M58.336.6877a1.5194,1.5194,0,0,1,1.7192,1.7192V47.22c0,33.8094-8.2517,43.78-38.1646,43.78A74.4339,74.4339,0,0,1,2.98,88.937C1.0315,88.4788,0,87.7911,0,85.7281V74.267a1.5194,1.5194,0,0,1,1.7192-1.7188H21.8906c13.9823,0,16.9621-5.5014,16.9621-25.3285V19.14H17.7645a1.6036,1.6036,0,0,1-1.8339-1.7192V2.4069c0-1.1463.5733-1.7192,1.8339-1.7192Z"/><path class="a" d="M132.0269,57.9921C132.0269,84.4675,126.1812,91,101.5407,91S71.0545,84.4675,71.0545,57.9921C71.0545,31.403,76.9,24.87,101.5407,24.87S132.0269,31.403,132.0269,57.9921Zm-40.9157,0c0,12.607,1.7192,15.8167,10.43,15.8167s10.43-3.21,10.43-15.8167c0-12.7216-1.72-15.9305-10.43-15.9305S91.1112,45.2705,91.1112,57.9921Z"/><path class="a" d="M199.414,25.4433c1.1467,0,1.6049.573,1.6049,1.8336V86.9887c0,1.49-.3443,1.7187-1.6049,1.9483C192.1937,90.3123,180.3893,91,170.1888,91c-22.6931,0-28.1945-4.9285-28.1945-27.9646V27.2769a1.636,1.636,0,0,1,1.8344-1.8336h16.5035c1.1458,0,1.7187.573,1.7187,1.8336V56.9611c0,15.93.9177,16.8477,11.232,16.8477h7.6793V27.2769c0-1.2606.5729-1.8336,1.7188-1.8336Z"/><path class="a" d="M251.4447,26.2453c1.3754.23,1.9492.8025,1.9492,2.4069v11.69c0,1.1463-.6877,1.7192-1.9492,1.7192H240.0993c-4.9285,0-6.9916.8024-6.9916,5.731v40.801c0,1.2606-.5729,1.8335-1.7188,1.8335H214.77c-1.1458,0-1.7187-.5729-1.7187-1.8335V42.4054c0-15.2428,9.7414-17.535,22.0049-17.535A97.5871,97.5871,0,0,1,251.4447,26.2453Z"/><path class="a" d="M319.75,52.72V88.5936c0,1.2606-.5729,1.8335-1.7188,1.8335H301.4133c-1.1458,0-1.6049-.5729-1.6049-1.8335V58.9094c0-15.9311-1.0311-16.8478-11.2315-16.8478h-7.6784v46.532c0,1.2606-.5729,1.8335-1.72,1.8335H262.3311c-1.1459,0-1.604-.5729-1.604-1.8335V28.6522c0-1.3753.5729-1.49,1.604-1.7192,7.1063-1.7187,19.14-2.0626,29.34-2.0626C314.3636,24.87,319.75,29.7985,319.75,52.72Z"/><path class="a" d="M385.9928,45.5V84.9256c0,2.2926-.8024,3.2089-2.7507,3.668A135.9338,135.9338,0,0,1,356.8824,91c-18.2231,0-28.3088-1.2606-28.5374-20.5148.2286-16.2749,8.71-19.2542,24.9843-19.2542l12.6069-.1148V48.8236c0-4.8137-2.9794-6.762-8.71-6.762H334.7627c-1.1458,0-1.49-.3439-1.49-1.7192v-11.69c0-1.3753.4591-1.6044,1.49-1.8335A107.8892,107.8892,0,0,1,357.2258,24.87C382.3258,24.87,385.9928,33.2369,385.9928,45.5ZM355.2776,63.15c-5.73,0-7.22,1.9483-7.22,5.96,0,4.5843,1.8336,5.8449,8.1375,5.8449a55.8563,55.8563,0,0,0,9.7414-.9172V63.15Z"/><path class="a" d="M416.1316.6877a1.6038,1.6038,0,0,1,1.72,1.834V88.5936c0,1.2606-.573,1.8335-1.72,1.8335H399.6281c-1.1458,0-1.7187-.5729-1.7187-1.8335V2.5217a1.6035,1.6035,0,0,1,1.7187-1.834Z"/><path class="a" d="M505.2972,45.73C505.2972,77.5906,494.8681,91,467.3617,91c-11.69,0-22.8074-.4582-34.0389-1.3754-1.3754-.1147-1.7188-.3443-1.7188-1.3753V2.98c0-1.1458.3434-1.49,1.7188-1.6044C444.5543.4586,455.672,0,467.3617,0,494.8681,0,505.2972,13.5241,505.2972,45.73ZM452.8065,18.4522v54.096h14.5552c12.1487,0,16.5035-8.0226,16.5035-26.8187,0-19.0256-4.47-27.2773-16.8469-27.2773Z"/><path class="a" d="M573.7157,57.6488v3.5531c0,2.4065-.8024,3.0942-3.4384,3.0942H534.52c.1147,8.4808,2.98,9.5127,11.9192,9.5127h21.0886a1.5193,1.5193,0,0,1,1.7188,1.7188V87.2182c0,1.3754-.573,1.7188-1.6049,1.9483C561.2236,90.5418,552.17,91,544.2611,91,520.3078,91,514.12,84.4675,514.12,57.9921c0-26.5891,6.1882-33.1217,30.1415-33.1217C567.8709,24.87,573.7157,31.403,573.7157,57.6488Zm-39.3108-5.5015h19.2542c0-7.7936-2.7507-10.0857-9.398-10.0857C537.5,42.0616,534.4049,44.3537,534.4049,52.1473Z"/><path class="a" d="M642.5952,25.4433a1.38,1.38,0,0,1,1.49,1.8336L631.02,77.1325C627.6966,89.7394,625.6335,91,610.734,91c-14.67,0-16.6182-1.1458-20.0566-13.8675L577.3828,27.2769c-.23-1.2606.3443-1.8336,1.49-1.8336h17.6493c1.032,0,1.1468.573,1.6049,1.8336l10.8882,45.959c.3434,1.4893.5729,1.7188,1.604,1.7188,1.2606,0,1.49-.23,1.8344-1.7188l10.8872-45.959c.3443-1.2606.4582-1.8336,1.6049-1.8336Z"/></svg>