<?xml version="1.0" encoding="UTF-8"?> <svg xmlns="http://www.w3.org/2000/svg" xmlns:xlink="http://www.w3.org/1999/xlink" id="Logo" viewBox="0 0 806.31 130"><defs><style>.cls-1{fill:url(#linear-gradient);}.cls-2{fill:#37474f;}</style><linearGradient id="linear-gradient" x1="548.95" y1="482.89" x2="663.16" y2="597.11" gradientUnits="userSpaceOnUse"><stop offset="0" stop-color="#2196f3"></stop><stop offset="1" stop-color="#9c27b0"></stop></linearGradient></defs><title>Logo-Dark</title><g id="Icon"><path class="cls-1" d="M556.84,475h65v65a65,65,0,0,1-65,65h0V573.09h0A33.09,33.09,0,0,0,589.93,540V506.91H556.84Zm71.5,0h0v31.91h0A33.07,33.07,0,0,1,661.43,540h0a33.07,33.07,0,0,1-33.07,33.07h0v32h0a65,65,0,0,0,65-65h0A65,65,0,0,0,628.34,475Z" transform="translate(-556.84 -475)"></path></g><g id="Typography"><path id="J" class="cls-2" d="M777.36,495.19a1.52,1.52,0,0,1,1.72,1.72v44.81c0,33.81-8.25,43.78-38.16,43.78A74.64,74.64,0,0,1,722,583.44c-2-.46-3-1.15-3-3.21V568.77a1.52,1.52,0,0,1,1.72-1.72h20.17c14,0,17-5.5,17-25.33V513.64H736.79a1.6,1.6,0,0,1-1.83-1.72v-15c0-1.15.57-1.72,1.83-1.72Z" transform="translate(-556.84 -475)"></path><path id="O" class="cls-2" d="M851.05,552.49c0,26.48-5.84,33-30.48,33s-30.49-6.53-30.49-33,5.85-33.12,30.49-33.12S851.05,525.9,851.05,552.49Zm-40.91,0c0,12.61,1.72,15.82,10.43,15.82S831,565.1,831,552.49s-1.72-15.93-10.43-15.93S810.14,539.77,810.14,552.49Z" transform="translate(-556.84 -475)"></path><path id="U" class="cls-2" d="M918.44,519.94c1.15,0,1.61.58,1.61,1.84v59.71c0,1.49-.35,1.72-1.61,2-7.22,1.37-19,2.06-29.22,2.06-22.7,0-28.2-4.93-28.2-28V521.78a1.64,1.64,0,0,1,1.84-1.84h16.5c1.15,0,1.72.58,1.72,1.84v29.68c0,15.93.92,16.85,11.23,16.85H900V521.78c0-1.26.57-1.84,1.72-1.84Z" transform="translate(-556.84 -475)"></path><path id="R" class="cls-2" d="M970.47,520.75c1.38.22,1.95.8,1.95,2.4v11.69c0,1.15-.69,1.72-1.95,1.72H959.13c-4.93,0-7,.8-7,5.73v40.8c0,1.26-.58,1.84-1.72,1.84H933.8c-1.15,0-1.72-.58-1.72-1.84V536.91c0-15.25,9.74-17.54,22-17.54A96.63,96.63,0,0,1,970.47,520.75Z" transform="translate(-556.84 -475)"></path><path id="N" class="cls-2" d="M1038.78,547.22v35.87c0,1.26-.57,1.84-1.72,1.84h-16.62c-1.14,0-1.6-.58-1.6-1.84V553.41c0-15.93-1-16.85-11.24-16.85h-7.67v46.53c0,1.26-.58,1.84-1.72,1.84H981.36c-1.15,0-1.61-.58-1.61-1.84V523.15c0-1.37.58-1.49,1.61-1.72,7.11-1.72,19.14-2.06,29.34-2.06C1033.39,519.37,1038.78,524.3,1038.78,547.22Z" transform="translate(-556.84 -475)"></path><path id="A" class="cls-2" d="M1105,540v39.43c0,2.29-.8,3.2-2.75,3.66a135.38,135.38,0,0,1-26.36,2.41c-18.22,0-28.31-1.26-28.54-20.51.23-16.28,8.71-19.26,25-19.26l12.6-.11v-2.3c0-4.81-3-6.76-8.71-6.76h-22.46c-1.15,0-1.49-.34-1.49-1.72V523.15c0-1.37.46-1.6,1.49-1.83a107.87,107.87,0,0,1,22.46-2C1101.35,519.37,1105,527.74,1105,540Zm-30.71,17.65c-5.73,0-7.22,2-7.22,6,0,4.58,1.83,5.84,8.13,5.84a55.44,55.44,0,0,0,9.74-.91V557.65Z" transform="translate(-556.84 -475)"></path><path id="L" class="cls-2" d="M1135.16,495.19a1.6,1.6,0,0,1,1.72,1.83v86.07c0,1.26-.57,1.84-1.72,1.84h-16.5c-1.15,0-1.72-.58-1.72-1.84V497a1.6,1.6,0,0,1,1.72-1.83Z" transform="translate(-556.84 -475)"></path><path id="D" class="cls-2" d="M1224.33,540.23c0,31.86-10.43,45.27-37.94,45.27-11.69,0-22.81-.46-34-1.38-1.37-.11-1.72-.34-1.72-1.37V497.48c0-1.15.35-1.49,1.72-1.6,11.23-.92,22.35-1.38,34-1.38C1213.9,494.5,1224.33,508,1224.33,540.23ZM1171.83,513v54.1h14.56c12.15,0,16.5-8,16.5-26.82,0-19-4.47-27.28-16.84-27.28Z" transform="translate(-556.84 -475)"></path><path id="E" class="cls-2" d="M1292.74,552.15v3.55c0,2.41-.8,3.1-3.43,3.1h-35.76c.11,8.48,3,9.51,11.92,9.51h21.09a1.51,1.51,0,0,1,1.71,1.72v11.69c0,1.37-.57,1.72-1.6,1.95-6.42,1.37-15.47,1.83-23.38,1.83-24,0-30.14-6.53-30.14-33s6.19-33.12,30.14-33.12C1286.9,519.37,1292.74,525.9,1292.74,552.15Zm-39.31-5.5h19.26c0-7.8-2.75-10.09-9.4-10.09S1253.43,538.85,1253.43,546.65Z" transform="translate(-556.84 -475)"></path><path id="V" class="cls-2" d="M1361.62,519.94a1.38,1.38,0,0,1,1.49,1.84l-13.06,49.85c-3.33,12.61-5.39,13.87-20.29,13.87-14.67,0-16.62-1.15-20-13.87l-13.3-49.85c-.23-1.26.34-1.84,1.49-1.84h17.65c1,0,1.15.58,1.6,1.84l10.89,46c.35,1.49.58,1.71,1.61,1.71,1.26,0,1.49-.22,1.83-1.71l10.89-46c.34-1.26.46-1.84,1.6-1.84Z" transform="translate(-556.84 -475)"></path></g></svg> 